HIERARCHY
ROOT Hips
{
	OFFSET 0.000000 0.000000 0.000000
	CHANNELS 6 Xposition Yposition Zposition Zrotation Yrotation Xrotation 
	JOINT Spine1
	{
		OFFSET -0.013727 5.003761 -0.053727
		CHANNELS 3 Zrotation Yrotation Xrotation
		JOINT Spine2
		{
			OFFSET -0.000000 7.125302 -0.029825
			CHANNELS 3 Zrotation Yrotation Xrotation
			JOINT Chest
			{
				OFFSET -0.000001 7.550064 -0.815971
				CHANNELS 3 Zrotation Yrotation Xrotation
				JOINT Neck1
				{
					OFFSET -0.181677 26.311296 -0.553349
					CHANNELS 3 Zrotation Yrotation Xrotation
					JOINT Neck2
					{
						OFFSET -0.000003 7.709399 2.302586
						CHANNELS 3 Zrotation Yrotation Xrotation
						JOINT Head
						{
							OFFSET -0.000005 6.128913 1.953709
							CHANNELS 3 Zrotation Yrotation Xrotation
							JOINT HeadEnd
							{
								OFFSET 0.003598 16.065403 -1.835379
								CHANNELS 3 Zrotation Yrotation Xrotation
								End Site
								{
									OFFSET 0.000000 0.000000 0.000000
								}
							}
							JOINT Jaw
							{
								OFFSET 0.002637 0.475591 3.094941
								CHANNELS 3 Zrotation Yrotation Xrotation
								End Site
								{
									OFFSET 0.000000 0.000000 0.000000
								}
							}
							JOINT LeftEye
							{
								OFFSET 3.206380 5.380207 7.586883
								CHANNELS 3 Zrotation Yrotation Xrotation
								End Site
								{
									OFFSET 0.000000 0.000000 0.000000
								}
							}
							JOINT RightEye
							{
								OFFSET -3.222440 5.361867 7.558232
								CHANNELS 3 Zrotation Yrotation Xrotation
								End Site
								{
									OFFSET 0.000000 0.000000 0.000000
								}
							}
						}
					}
				}
				JOINT LeftShoulder
				{
					OFFSET 1.621652 23.237164 5.113413
					CHANNELS 3 Zrotation Yrotation Xrotation
					JOINT LeftArm
					{
						OFFSET 14.919845 0.000000 -5.502326
						CHANNELS 3 Zrotation Yrotation Xrotation
						JOINT LeftForeArm
						{
							OFFSET 28.739309 0.000003 -0.002588
							CHANNELS 3 Zrotation Yrotation Xrotation
							JOINT LeftHand
							{
								OFFSET 27.093979 -0.000002 0.002608
								CHANNELS 3 Zrotation Yrotation Xrotation
								JOINT LeftHandThumb1
								{
									OFFSET 2.276480 -1.392046 3.191413
									CHANNELS 3 Zrotation Yrotation Xrotation
									JOINT LeftHandThumb2
									{
										OFFSET 4.012841 -1.828126 1.641655
										CHANNELS 3 Zrotation Yrotation Xrotation
										JOINT LeftHandThumb3
										{
											OFFSET 2.798517 0.000001 -0.000003
											CHANNELS 3 Zrotation Yrotation Xrotation
											JOINT LeftHandThumbEnd
											{
												OFFSET 3.180791 -0.000001 0.000003
												CHANNELS 3 Zrotation Yrotation Xrotation
												End Site
												{
													OFFSET 0.000000 0.000000 0.000000
												}
											}
										}
									}
								}
								JOINT LeftHandIndex1
								{
									OFFSET 3.247553 -0.531998 2.296169
									CHANNELS 3 Zrotation Yrotation Xrotation
									JOINT LeftHandIndex2
									{
										OFFSET 6.364580 0.012062 0.178600
										CHANNELS 3 Zrotation Yrotation Xrotation
										JOINT LeftHandIndex3
										{
											OFFSET 3.662367 0.000001 -0.000000
											CHANNELS 3 Zrotation Yrotation Xrotation
											JOINT LeftHandIndex4
											{
												OFFSET 2.329243 0.000002 0.000004
												CHANNELS 3 Zrotation Yrotation Xrotation
												JOINT LeftHandIndexEnd
												{
													OFFSET 2.759619 -0.180539 -0.113024
													CHANNELS 3 Zrotation Yrotation Xrotation
													End Site
													{
														OFFSET 0.000000 0.000000 0.000000
													}
												}
											}
										}
									}
								}
								JOINT LeftHandMiddle1
								{
									OFFSET 3.163499 0.240982 1.000332
									CHANNELS 3 Zrotation Yrotation Xrotation
									JOINT LeftHandMiddle2
									{
										OFFSET 6.190778 -0.259277 -1.002548
										CHANNELS 3 Zrotation Yrotation Xrotation
										JOINT LeftHandMiddle3
										{
											OFFSET 4.356522 -0.000006 0.000000
											CHANNELS 3 Zrotation Yrotation Xrotation
											JOINT LeftHandMiddle4
											{
												OFFSET 2.996875 -0.000006 0.000001
												CHANNELS 3 Zrotation Yrotation Xrotation
												JOINT LeftHandMiddleEnd
												{
													OFFSET 2.304294 -0.294571 -0.031740
													CHANNELS 3 Zrotation Yrotation Xrotation
													End Site
													{
														OFFSET 0.000000 0.000000 0.000000
													}
												}
											}
										}
									}
								}
								JOINT LeftHandRing1
								{
									OFFSET 2.882641 -0.053650 -0.322543
									CHANNELS 3 Zrotation Yrotation Xrotation
									JOINT LeftHandRing2
									{
										OFFSET 5.854543 -0.486203 -1.373841
										CHANNELS 3 Zrotation Yrotation Xrotation
										JOINT LeftHandRing3
										{
											OFFSET 4.350580 0.000001 0.000004
											CHANNELS 3 Zrotation Yrotation Xrotation
											JOINT LeftHandRing4
											{
												OFFSET 2.651325 0.000008 0.000003
												CHANNELS 3 Zrotation Yrotation Xrotation
												JOINT LeftHandRingEnd
												{
													OFFSET 1.936111 0.077685 -0.000070
													CHANNELS 3 Zrotation Yrotation Xrotation
													End Site
													{
														OFFSET 0.000000 0.000000 0.000000
													}
												}
											}
										}
									}
								}
								JOINT LeftHandPinky1
								{
									OFFSET 2.865499 -0.310004 -1.600378
									CHANNELS 3 Zrotation Yrotation Xrotation
									JOINT LeftHandPinky2
									{
										OFFSET 5.087852 -1.331141 -1.771231
										CHANNELS 3 Zrotation Yrotation Xrotation
										JOINT LeftHandPinky3
										{
											OFFSET 3.070975 0.000003 0.000001
											CHANNELS 3 Zrotation Yrotation Xrotation
											JOINT LeftHandPinky4
											{
												OFFSET 1.549668 0.000001 0.000001
												CHANNELS 3 Zrotation Yrotation Xrotation
												JOINT LeftHandPinkyEnd
												{
													OFFSET 1.944895 -0.157802 0.057219
													CHANNELS 3 Zrotation Yrotation Xrotation
													End Site
													{
														OFFSET 0.000000 0.000000 0.000000
													}
												}
											}
										}
									}
								}
							}
						}
					}
				}
				JOINT RightShoulder
				{
					OFFSET -1.380118 23.180307 5.214157
					CHANNELS 3 Zrotation Yrotation Xrotation
					JOINT RightArm
					{
						OFFSET -15.037197 0.000012 -5.545604
						CHANNELS 3 Zrotation Yrotation Xrotation
						JOINT RightForeArm
						{
							OFFSET -28.736639 0.000002 -0.002597
							CHANNELS 3 Zrotation Yrotation Xrotation
							JOINT RightHand
							{
								OFFSET -27.133617 -0.000001 0.002613
								CHANNELS 3 Zrotation Yrotation Xrotation
								JOINT RightHandThumb1
								{
									OFFSET -2.274037 -1.383990 3.163128
									CHANNELS 3 Zrotation Yrotation Xrotation
									JOINT RightHandThumb2
									{
										OFFSET -4.011429 -1.827468 1.640914
										CHANNELS 3 Zrotation Yrotation Xrotation
										JOINT RightHandThumb3
										{
											OFFSET -2.794935 -0.000004 -0.000004
											CHANNELS 3 Zrotation Yrotation Xrotation
											JOINT RightHandThumbEnd
											{
												OFFSET -3.183856 0.000003 0.000000
												CHANNELS 3 Zrotation Yrotation Xrotation
												End Site
												{
													OFFSET 0.000000 0.000000 0.000000
												}
											}
										}
									}
								}
								JOINT RightHandIndex1
								{
									OFFSET -3.253270 -0.520059 2.282866
									CHANNELS 3 Zrotation Yrotation Xrotation
									JOINT RightHandIndex2
									{
										OFFSET -6.341918 0.012473 0.178265
										CHANNELS 3 Zrotation Yrotation Xrotation
										JOINT RightHandIndex3
										{
											OFFSET -3.654874 -0.000009 -0.000001
											CHANNELS 3 Zrotation Yrotation Xrotation
											JOINT RightHandIndex4
											{
												OFFSET -2.327586 -0.000000 0.000001
												CHANNELS 3 Zrotation Yrotation Xrotation
												JOINT RightHandIndexEnd
												{
													OFFSET -2.761789 -0.180657 -0.113079
													CHANNELS 3 Zrotation Yrotation Xrotation
													End Site
													{
														OFFSET 0.000000 0.000000 0.000000
													}
												}
											}
										}
									}
								}
								JOINT RightHandMiddle1
								{
									OFFSET -3.168107 0.246593 1.001030
									CHANNELS 3 Zrotation Yrotation Xrotation
									JOINT RightHandMiddle2
									{
										OFFSET -6.180830 -0.258836 -1.000896
										CHANNELS 3 Zrotation Yrotation Xrotation
										JOINT RightHandMiddle3
										{
											OFFSET -4.348905 -0.000000 -0.000000
											CHANNELS 3 Zrotation Yrotation Xrotation
											JOINT RightHandMiddle4
											{
												OFFSET -3.000242 -0.000004 -0.000002
												CHANNELS 3 Zrotation Yrotation Xrotation
												JOINT RightHandMiddleEnd
												{
													OFFSET -2.302517 -0.294372 -0.031706
													CHANNELS 3 Zrotation Yrotation Xrotation
													End Site
													{
														OFFSET 0.000000 0.000000 0.000000
													}
												}
											}
										}
									}
								}
								JOINT RightHandRing1
								{
									OFFSET -2.885694 -0.067952 -0.308858
									CHANNELS 3 Zrotation Yrotation Xrotation
									JOINT RightHandRing2
									{
										OFFSET -5.854196 -0.486132 -1.373732
										CHANNELS 3 Zrotation Yrotation Xrotation
										JOINT RightHandRing3
										{
											OFFSET -4.338814 -0.000004 -0.000000
											CHANNELS 3 Zrotation Yrotation Xrotation
											JOINT RightHandRing4
											{
												OFFSET -2.654905 -0.000004 0.000004
												CHANNELS 3 Zrotation Yrotation Xrotation
												JOINT RightHandRingEnd
												{
													OFFSET -1.933570 0.077524 -0.000053
													CHANNELS 3 Zrotation Yrotation Xrotation
													End Site
													{
														OFFSET 0.000000 0.000000 0.000000
													}
												}
											}
										}
									}
								}
								JOINT RightHandPinky1
								{
									OFFSET -2.866430 -0.342798 -1.584145
									CHANNELS 3 Zrotation Yrotation Xrotation
									JOINT RightHandPinky2
									{
										OFFSET -5.091371 -1.332054 -1.772385
										CHANNELS 3 Zrotation Yrotation Xrotation
										JOINT RightHandPinky3
										{
											OFFSET -3.062666 -0.000006 -0.000000
											CHANNELS 3 Zrotation Yrotation Xrotation
											JOINT RightHandPinky4
											{
												OFFSET -1.546526 0.000006 -0.000002
												CHANNELS 3 Zrotation Yrotation Xrotation
												JOINT RightHandPinkyEnd
												{
													OFFSET -1.945122 -0.157721 0.057211
													CHANNELS 3 Zrotation Yrotation Xrotation
													End Site
													{
														OFFSET 0.000000 0.000000 0.000000
													}
												}
											}
										}
									}
								}
							}
						}
					}
				}
			}
		}
	}
	JOINT LeftLeg
	{
		OFFSET 10.043214 -8.434526 2.595655
		CHANNELS 3 Zrotation Yrotation Xrotation
		JOINT LeftShin
		{
			OFFSET -0.000001 -43.221752 -0.802913
			CHANNELS 3 Zrotation Yrotation Xrotation
			JOINT LeftFoot
			{
				OFFSET 0.000001 -42.155094 -3.481523
				CHANNELS 3 Zrotation Yrotation Xrotation
				JOINT LeftToeBase
				{
					OFFSET 0.000000 -5.059475 13.231529
					CHANNELS 3 Zrotation Yrotation Xrotation
					JOINT LeftToeEnd
					{
						OFFSET -0.009607 -1.647615 6.513017
						CHANNELS 3 Zrotation Yrotation Xrotation
						End Site
						{
							OFFSET 0.000000 0.000000 0.000000
						}
					}
				}
			}
		}
	}
	JOINT RightLeg
	{
		OFFSET -10.047277 -8.295260 2.620317
		CHANNELS 3 Zrotation Yrotation Xrotation
		JOINT RightShin
		{
			OFFSET 0.000001 -43.362209 -0.805556
			CHANNELS 3 Zrotation Yrotation Xrotation
			JOINT RightFoot
			{
				OFFSET 0.000002 -42.117393 -3.478398
				CHANNELS 3 Zrotation Yrotation Xrotation
				JOINT RightToeBase
				{
					OFFSET -0.000001 -5.079609 13.284196
					CHANNELS 3 Zrotation Yrotation Xrotation
					JOINT RightToeEnd
					{
						OFFSET 0.009532 -1.634383 6.460591
						CHANNELS 3 Zrotation Yrotation Xrotation
						End Site
						{
							OFFSET 0.000000 0.000000 0.000000
						}
					}
				}
			}
		}
	}
}
MOTION
Frames: 5
Frame Time: 0.033333
-3.045862 99.677292 2.513402 2.323938 -5.839941 6.567740 3.954775 0.461962 -2.514139 -0.006561 -0.475048 -5.270181 -0.048612 -3.176103 11.092155 -3.225043 3.455065 -9.728760 -0.499837 -1.041224 -3.487012 5.479578 -3.872642 -14.650765 0.000077 -0.000023 0.000005 -0.009843 0.169383 0.033272 0.640063 -3.561141 -10.481340 -0.668821 3.906065 -10.457909 -12.737152 -6.071974 11.582129 -61.746307 3.785066 9.653219 -0.856344 -40.083736 0.926565 -5.591556 6.737081 -3.551813 -5.882102 9.861278 0.702589 -10.936860 -0.360574 7.156198 -0.000000 8.774815 -0.000001 -16.039389 17.808500 5.944623 -1.844031 2.498503 -2.507276 -10.163590 4.678940 4.621102 -20.975996 -0.000002 0.000003 -21.226255 2.451694 -3.593994 0.000001 -0.000007 -0.000000 -1.362681 2.240797 -0.746323 -21.334892 0.584910 3.008322 -13.821197 -0.000003 0.000001 -23.887135 -0.249078 -0.839480 -60.330223 2.477646 -1.064017 -0.294025 1.679686 0.833255 -14.218194 0.093215 1.300580 -34.212002 -0.287563 0.967166 -20.033186 0.964534 1.212840 0.000000 -0.000002 -0.000000 -3.440386 0.788233 0.501652 -15.928171 -3.167306 2.999703 -6.338817 -0.000002 0.000000 -18.123417 3.648176 -4.905663 -0.000005 -0.000000 -0.000002 14.086504 9.070109 15.959479 50.861122 24.199100 41.715630 -1.219131 33.218307 -0.619807 -0.637080 0.806910 -8.152841 2.243540 -5.255035 -3.180154 14.282877 -0.826594 6.952497 -0.000002 -12.690590 -0.000002 16.316021 -18.142300 2.439515 1.665665 -1.955921 -2.878294 4.727794 -4.170582 4.993919 11.020513 0.000002 0.000000 12.109033 -3.735708 -2.866783 0.000001 -0.000000 0.000001 1.291984 -1.928547 -1.498088 14.800111 0.567468 3.865601 14.242551 -1.341735 -6.660648 19.631939 0.143927 -0.648244 49.764595 -1.082272 -6.683916 0.353028 -1.511150 -0.031940 20.222769 3.684306 2.316630 18.787245 0.000006 -0.000002 10.751611 -0.479867 1.397904 0.000003 0.000000 0.000000 3.273804 0.305945 -0.580110 21.486790 11.830362 2.266132 8.162917 0.000002 -0.000001 18.399050 -3.798982 -4.940565 0.000003 -0.000002 -0.000000 16.965033 13.659050 -18.339739 -0.879915 -1.743685 76.766342 -16.618021 -16.078169 -3.229948 1.686026 -1.880704 -2.779521 -0.000000 -0.000000 0.000000 4.673072 -11.375467 -14.625509 0.036763 -0.068626 16.655830 -3.351353 -0.172414 -10.075570 -1.384185 0.894603 0.911783 0.000000 0.000000 -0.000001 
-2.981305 99.579887 2.759127 1.846758 -6.694164 7.040268 3.956922 0.355448 -2.604069 0.021744 -0.678632 -5.377759 0.351598 -3.342980 10.873005 -2.864277 3.338696 -10.504655 -0.586027 -1.103569 -3.534792 5.532155 -4.309607 -14.568301 0.000078 -0.000023 0.000007 -0.009691 0.151177 0.002860 0.641073 -3.567813 -10.505471 -0.667496 3.867927 -10.465670 -12.162841 -6.412037 11.569070 -60.591454 3.067471 11.228354 -1.128797 -43.747135 1.247710 -6.387576 7.011183 -1.582776 -5.882100 9.861277 0.702589 -10.936860 -0.360577 7.156194 0.000002 8.774814 -0.000002 -15.877202 17.874929 6.088771 -1.844031 2.498503 -2.507277 -10.163591 4.678938 4.621104 -20.976000 -0.000007 0.000005 -21.226255 2.451688 -3.593992 0.000001 -0.000005 0.000001 -1.362680 2.240796 -0.746323 -21.334894 0.584905 3.008320 -13.821197 -0.000004 0.000003 -23.887131 -0.249082 -0.839479 -60.409668 2.616870 -1.037817 -0.294024 1.679686 0.833255 -14.218197 0.093212 1.300580 -34.212006 -0.287569 0.967170 -20.033186 0.964530 1.212844 -0.000001 0.000001 -0.000000 -3.440385 0.788231 0.501652 -15.928171 -3.167309 2.999704 -6.338817 -0.000002 0.000002 -18.123417 3.648174 -4.905661 -0.000004 -0.000000 -0.000001 14.550261 9.180415 15.934030 50.742630 23.970041 41.830578 -0.891977 32.465900 -0.377350 -0.061242 0.714039 -8.548210 2.243539 -5.255033 -3.180155 14.282873 -0.826593 6.952495 -0.000004 -12.690592 0.000001 16.280058 -18.074604 2.448357 1.665664 -1.955920 -2.878297 4.727793 -4.170584 4.993920 11.020511 0.000004 -0.000001 12.109032 -3.735707 -2.866780 0.000001 0.000001 -0.000001 1.291983 -1.928548 -1.498089 14.800111 0.567471 3.865602 14.242553 -1.341734 -6.660648 19.631937 0.143928 -0.648243 49.677341 -1.137904 -6.714563 0.353030 -1.511148 -0.031938 20.222767 3.684308 2.316629 18.787245 0.000007 0.000000 10.751610 -0.479866 1.397905 0.000002 0.000002 0.000001 3.273804 0.305949 -0.580110 21.486794 11.830364 2.266130 8.162916 0.000002 -0.000001 18.399052 -3.798979 -4.940565 0.000003 -0.000002 -0.000001 14.852707 13.195307 -16.650314 -0.583259 -1.559412 63.604774 -16.472977 -12.614194 -5.347810 1.705550 -1.905974 -3.022410 -0.000000 -0.000000 0.000001 5.075931 -9.916059 -15.074988 0.065610 -0.084677 16.854645 -3.648936 -0.433937 -10.130703 -1.398000 0.967904 1.036728 0.000000 0.000000 -0.000001 
-3.028554 99.459518 2.954434 1.365794 -7.035649 7.469051 3.936518 0.261098 -2.671983 0.002407 -0.820419 -5.494493 0.648329 -3.371086 10.709253 -2.630843 3.158124 -11.078466 -0.665374 -1.125819 -3.576493 5.629683 -4.895869 -14.700129 0.000077 -0.000023 0.000006 -0.003359 0.135234 -0.017618 0.652517 -3.568192 -10.525669 -0.669039 3.838388 -10.454807 -11.453511 -6.682755 11.415693 -59.521572 2.484780 11.318386 -1.049949 -49.127468 1.339669 -6.139787 6.853082 -1.935170 -5.882100 9.861278 0.702592 -10.936858 -0.360576 7.156199 0.000001 8.774814 -0.000001 -15.767036 18.140976 6.304513 -1.844031 2.498503 -2.507275 -10.163589 4.678939 4.621103 -20.975992 -0.000003 0.000003 -21.226248 2.451694 -3.593992 -0.000000 -0.000004 0.000001 -1.362680 2.240796 -0.746324 -21.334892 0.584908 3.008322 -13.821194 -0.000004 0.000003 -23.887131 -0.249079 -0.839478 -60.568108 2.747597 -1.138417 -0.294023 1.679685 0.833255 -14.218190 0.093213 1.300579 -34.211998 -0.287566 0.967172 -20.033176 0.964534 1.212843 -0.000001 -0.000001 0.000000 -3.440385 0.788232 0.501656 -15.928167 -3.167307 2.999703 -6.338815 -0.000000 0.000001 -18.123411 3.648175 -4.905658 -0.000002 0.000001 0.000001 14.891258 9.148300 15.809744 50.777649 23.603748 42.391491 -0.630833 31.623638 -0.224854 0.954902 0.528717 -8.428061 2.243540 -5.255033 -3.180156 14.282873 -0.826593 6.952496 -0.000003 -12.690590 0.000001 16.328857 -18.033819 2.469205 1.665664 -1.955921 -2.878297 4.727793 -4.170582 4.993918 11.020511 0.000004 -0.000000 12.109032 -3.735709 -2.866780 0.000001 0.000001 -0.000001 1.291985 -1.928548 -1.498087 14.800111 0.567468 3.865602 14.242553 -1.341735 -6.660650 19.631935 0.143926 -0.648245 49.669975 -1.107605 -6.702887 0.353027 -1.511149 -0.031940 20.222765 3.684306 2.316628 18.787245 0.000005 0.000001 10.751609 -0.479868 1.397904 0.000001 -0.000000 -0.000000 3.273804 0.305948 -0.580109 21.486790 11.830365 2.266130 8.162915 0.000003 -0.000002 18.399052 -3.798977 -4.940567 0.000003 -0.000001 -0.000001 13.250568 13.236407 -15.002783 -0.359264 -1.354064 49.317760 -15.992467 -9.081270 -7.414533 1.733278 -1.953197 -3.362080 0.000000 -0.000000 0.000003 5.519550 -8.825674 -15.439016 0.099129 -0.086770 17.089426 -3.726241 -0.722592 -10.297086 -1.416130 1.017136 1.250318 -0.000000 -0.000000 -0.000001 
-3.123573 99.344788 3.078438 0.883073 -6.898499 7.744567 3.957220 0.179264 -2.681205 -0.035851 -0.963543 -5.573160 0.847280 -3.320558 10.627334 -2.598465 2.976105 -11.439846 -0.704909 -1.243445 -3.573324 5.711728 -5.331495 -14.982183 0.000077 -0.000022 0.000004 0.008841 0.118192 -0.010520 0.682815 -3.569134 -10.527679 -0.678242 3.809243 -10.434793 -10.588083 -6.909894 11.063260 -59.103939 2.053471 10.150971 -0.624900 -54.859051 0.997976 -4.762315 6.439363 -3.857669 -5.882101 9.861279 0.702590 -10.936858 -0.360576 7.156198 0.000001 8.774814 -0.000002 -15.746189 18.502699 6.504926 -1.844031 2.498502 -2.507277 -10.163589 4.678939 4.621104 -20.975994 -0.000004 0.000003 -21.226255 2.451692 -3.593991 0.000001 -0.000005 -0.000001 -1.362681 2.240798 -0.746325 -21.334890 0.584908 3.008320 -13.821197 -0.000002 0.000001 -23.887131 -0.249078 -0.839481 -60.582954 2.837894 -1.222444 -0.294024 1.679686 0.833254 -14.218192 0.093214 1.300580 -34.211998 -0.287564 0.967174 -20.033180 0.964535 1.212842 -0.000001 0.000001 -0.000000 -3.440384 0.788231 0.501653 -15.928169 -3.167308 2.999704 -6.338817 -0.000002 0.000001 -18.123415 3.648173 -4.905660 -0.000003 0.000001 -0.000001 14.965206 9.106854 15.634145 51.043629 23.119036 42.912422 -0.463153 30.878273 -0.159331 1.901557 0.296099 -8.081756 2.243540 -5.255033 -3.180156 14.282877 -0.826594 6.952496 -0.000001 -12.690590 -0.000002 16.412493 -17.959063 2.441494 1.665665 -1.955921 -2.878297 4.727795 -4.170585 4.993918 11.020513 0.000002 -0.000001 12.109033 -3.735709 -2.866776 0.000001 -0.000000 0.000001 1.291984 -1.928548 -1.498089 14.800111 0.567467 3.865602 14.242553 -1.341736 -6.660647 19.631939 0.143926 -0.648247 49.627857 -0.970757 -6.618442 0.353029 -1.511149 -0.031940 20.222767 3.684304 2.316626 18.787245 0.000004 -0.000001 10.751610 -0.479870 1.397905 0.000001 0.000000 0.000000 3.273804 0.305947 -0.580110 21.486788 11.830361 2.266131 8.162917 0.000002 -0.000002 18.399052 -3.798979 -4.940567 0.000003 -0.000001 -0.000001 11.958997 13.750281 -13.833227 -0.260146 -1.105867 36.753410 -15.624957 -6.740166 -8.708866 1.742171 -2.001343 -3.358017 0.000000 -0.000000 0.000002 6.103539 -8.214252 -15.597866 0.111465 -0.147533 17.185701 -3.892515 -0.921926 -10.427018 -1.433221 1.038027 1.346216 0.000000 0.000000 -0.000001 
-3.201341 99.244209 3.117945 0.481271 -6.416138 7.813560 3.938976 0.129640 -2.640041 -0.056486 -1.065448 -5.575431 0.936670 -3.307298 10.622169 -2.685073 2.824636 -11.700651 -0.728644 -1.423149 -3.547519 5.754505 -5.654185 -15.379103 0.000077 -0.000022 0.000004 0.028525 0.136569 -0.000386 0.710881 -3.538177 -10.500360 -0.662012 3.816227 -10.420987 -9.658270 -7.095464 10.711135 -59.455387 1.375757 8.130441 -0.089267 -60.141376 0.495573 -2.350566 5.829957 -6.262012 -5.882102 9.861279 0.702592 -10.936858 -0.360575 7.156196 0.000001 8.774813 0.000000 -15.859564 18.735249 6.560284 -1.844030 2.498501 -2.507277 -10.163589 4.678940 4.621103 -20.975996 -0.000005 0.000000 -21.226250 2.451692 -3.593994 0.000002 -0.000006 -0.000002 -1.362681 2.240798 -0.746321 -21.334888 0.584907 3.008318 -13.821193 -0.000001 0.000000 -23.887131 -0.249079 -0.839481 -60.527966 2.904486 -1.360654 -0.294025 1.679687 0.833256 -14.218192 0.093215 1.300577 -34.212006 -0.287564 0.967166 -20.033176 0.964535 1.212843 -0.000000 -0.000000 0.000002 -3.440385 0.788233 0.501655 -15.928167 -3.167304 2.999702 -6.338816 -0.000000 0.000000 -18.123413 3.648175 -4.905661 -0.000003 0.000003 -0.000001 14.880910 9.063099 15.534412 51.545834 22.623421 42.811222 -0.231154 30.294968 -0.071924 2.389420 0.045897 -7.561698 2.243540 -5.255033 -3.180152 14.282877 -0.826593 6.952494 -0.000004 -12.690592 -0.000000 16.357058 -17.828732 2.459618 1.665665 -1.955921 -2.878295 4.727794 -4.170582 4.993917 11.020512 0.000003 0.000000 12.109033 -3.735710 -2.866777 0.000000 -0.000000 0.000002 1.291984 -1.928546 -1.498087 14.800114 0.567470 3.865602 14.242554 -1.341734 -6.660647 19.631939 0.143928 -0.648243 49.478523 -0.915236 -6.560856 0.353028 -1.511149 -0.031940 20.222769 3.684308 2.316627 18.787247 0.000006 -0.000001 10.751611 -0.479866 1.397906 0.000002 0.000000 -0.000001 3.273804 0.305947 -0.580110 21.486794 11.830365 2.266128 8.162916 0.000001 -0.000001 18.399054 -3.798976 -4.940569 0.000003 0.000000 -0.000003 10.633186 14.590009 -13.772817 -0.240667 -0.856366 28.404148 -15.527058 -5.971322 -9.882089 1.717187 -2.016542 -2.609133 0.000000 -0.000000 0.000002 6.589322 -7.914763 -15.605691 0.096294 -0.191514 17.257809 -3.989519 -1.321191 -10.463268 -1.442798 1.017499 1.313410 0.000000 0.000000 -0.000001 
